<svg width="36" height="35" viewBox="0 0 36 35" fill="none" xmlns="http://www.w3.org/2000/svg">
<path d="M17.9 34.7C15.5 34.7 13.25 34.25 11.15 33.35C9.08333 32.45 7.25 31.2167 5.65 29.65C4.05 28.05 2.8 26.2 1.9 24.1C1 22 0.55 19.75 0.55 17.35C0.55 14.95 1 12.7167 1.9 10.65C2.8 8.55 4.03333 6.7 5.6 5.1C7.2 3.5 9.05 2.25 11.15 1.35C13.25 0.449998 15.5 -2.38419e-06 17.9 -2.38419e-06C20.3 -2.38419e-06 22.55 0.449998 24.65 1.35C26.75 2.25 28.5833 3.5 30.15 5.1C31.75 6.66667 33 8.5 33.9 10.6C34.8 12.7 35.25 14.95 35.25 17.35C35.25 19.75 34.8 22 33.9 24.1C33 26.2 31.75 28.05 30.15 29.65C28.5833 31.2167 26.75 32.45 24.65 33.35C22.55 34.25 20.3 34.7 17.9 34.7ZM11.3 16C11.9667 16 12.5 15.7833 12.9 15.35C13.3333 14.9167 13.55 14.3833 13.55 13.75C13.55 13.1167 13.3333 12.5833 12.9 12.15C12.5 11.7167 11.9667 11.5 11.3 11.5C10.6667 11.5 10.1333 11.7167 9.7 12.15C9.26667 12.5833 9.05 13.1167 9.05 13.75C9.05 14.3833 9.26667 14.9167 9.7 15.35C10.1333 15.7833 10.6667 16 11.3 16ZM24.5 16C25.1333 16 25.6667 15.8 26.1 15.4C26.5333 14.9667 26.75 14.4167 26.75 13.75C26.75 13.1167 26.5333 12.5833 26.1 12.15C25.6667 11.7167 25.1333 11.5 24.5 11.5C23.8667 11.5 23.3333 11.7167 22.9 12.15C22.4667 12.5833 22.25 13.1167 22.25 13.75C22.25 14.3833 22.4667 14.9167 22.9 15.35C23.3333 15.7833 23.8667 16 24.5 16ZM17.85 26.8C21.35 26.8 24.0333 25.0167 25.9 21.45L24.15 20.5C22.7167 23.1 20.6167 24.4 17.85 24.4C15.05 24.4 12.95 23.1 11.55 20.5L9.85 21.45C11.7167 25.0167 14.3833 26.8 17.85 26.8Z" fill="black"/>
</svg>
